<?xml version="1.0" encoding="UTF-8" standalone="no"?>
<!-- Generator: Adobe Illustrator 28.0.0, SVG Export Plug-In . SVG Version: 6.00 Build 0)  -->

<svg
   version="1.1"
   x="0px"
   y="0px"
   viewBox="0 0 100 100"
   xml:space="preserve"
   id="svg34"
   sodipodi:docname="omnissiah_icon.svg"
   width="100"
   height="100"
   inkscape:version="1.3 (0e150ed6c4, 2023-07-21)"
   xmlns:inkscape="http://www.inkscape.org/namespaces/inkscape"
   xmlns:sodipodi="http://sodipodi.sourceforge.net/DTD/sodipodi-0.dtd"
   xmlns:xlink="http://www.w3.org/1999/xlink"
   xmlns="http://www.w3.org/2000/svg"
   xmlns:svg="http://www.w3.org/2000/svg"><defs
   id="defs34" /><sodipodi:namedview
   id="namedview34"
   pagecolor="#505050"
   bordercolor="#eeeeee"
   borderopacity="1"
   inkscape:showpageshadow="0"
   inkscape:pageopacity="0"
   inkscape:pagecheckerboard="0"
   inkscape:deskcolor="#505050"
   inkscape:zoom="5.7354497"
   inkscape:cx="51.260148"
   inkscape:cy="29.204336"
   inkscape:window-width="1920"
   inkscape:window-height="1009"
   inkscape:window-x="3832"
   inkscape:window-y="-8"
   inkscape:window-maximized="1"
   inkscape:current-layer="svg34" />&#10;<style
   type="text/css"
   id="style1">&#10;	.st0{clip-path:url(#SVGID_00000142166689665322827780000001775937036831383209_);}&#10;	.st1{fill:none;stroke:#01003A;stroke-width:0.3894;stroke-miterlimit:10;}&#10;	.st2{clip-path:url(#SVGID_00000173841278404186162250000009911135465410691500_);}&#10;	.st3{fill:#FEFDE0;}&#10;	.st4{fill:#007EDD;}&#10;	.st5{fill:#00B0FD;}&#10;	.st6{fill:#00B5FD;}&#10;	.st7{fill:#00F0CC;}&#10;	.st8{fill:#FF1535;}&#10;	.st9{fill:#FF8700;}&#10;	.st10{fill:#0078DD;}&#10;	.st11{fill:#01003A;}&#10;</style>&#10;&#10;&#10;<g
   id="g36"
   transform="translate(-0.34870848,-0.17435424)"><g
     id="g35"
     transform="matrix(0.36203065,0,0,0.36203065,-0.95103352,-1.1253878)"><g
       id="Capa_3">&#10;	<g
   id="g9">&#10;		<defs
   id="defs1">&#10;			<circle
   id="SVGID_1_"
   cx="141.7"
   cy="141.7"
   r="94.599998" />&#10;		</defs>&#10;		<use
   xlink:href="#SVGID_1_"
   style="overflow:visible;fill:#fefde0"
   id="use1" />&#10;		<clipPath
   id="SVGID_00000141452091100790233830000008324948813889308806_">&#10;			<use
   xlink:href="#SVGID_1_"
   style="overflow:visible"
   id="use2" />&#10;		</clipPath>&#10;		<g
   clip-path="url(#SVGID_00000141452091100790233830000008324948813889308806_)"
   id="g8">&#10;			<circle
   class="st1"
   cx="100.3"
   cy="118.2"
   r="47.700001"
   id="circle2" />&#10;			<circle
   class="st1"
   cx="100.3"
   cy="164.60001"
   r="47.700001"
   id="circle3" />&#10;			<circle
   class="st1"
   cx="183.2"
   cy="118.2"
   r="47.700001"
   id="circle4" />&#10;			<circle
   class="st1"
   cx="183.2"
   cy="164.60001"
   r="47.700001"
   id="circle5" />&#10;			<circle
   class="st1"
   cx="141.7"
   cy="189.39999"
   r="47.700001"
   id="circle6" />&#10;			<circle
   class="st1"
   cx="141.7"
   cy="94"
   r="47.700001"
   id="circle7" />&#10;			<circle
   class="st1"
   cx="141.7"
   cy="141.7"
   r="47.700001"
   id="circle8" />&#10;			<polygon
   class="st1"
   points="59.2,94 224.3,94 141.7,237.1 "
   id="polygon8" />&#10;		</g>&#10;		<use
   xlink:href="#SVGID_1_"
   style="overflow:visible;fill:none;stroke:#01003a;stroke-width:4.1538;stroke-miterlimit:10"
   id="use8" />&#10;	</g>&#10;</g><g
       id="Capa_2">&#10;	<g
   id="g34">&#10;		<defs
   id="defs9">&#10;			<circle
   id="SVGID_00000137821396309829957310000001957051204749329331_"
   cx="141.2"
   cy="139.60001"
   r="94.599998" />&#10;		</defs>&#10;		<clipPath
   id="SVGID_00000150077067047614414450000012899492468534120638_">&#10;			<use
   xlink:href="#SVGID_00000137821396309829957310000001957051204749329331_"
   style="overflow:visible"
   id="use9" />&#10;		</clipPath>&#10;		<g
   clip-path="url(#SVGID_00000150077067047614414450000012899492468534120638_)"
   id="g33">&#10;			<path
   class="st3"
   d="m 168.9,216.6 1.5,-42.4 c 0,0 35.5,-6.5 24.6,-20.1 0,0 -2.7,-2.6 -2.8,-6 -0.1,-3.4 -4.5,-8 -4.5,-8 l -1.2,-7.4 8.6,-3.8 -22.1,-21.1 1.1,-3.4 -8.6,-8.6 c 0,0 16.4,0.8 11.1,-12.4 0,0 -7.4,-6 -12,-4.4 l -8,2.3 c 0,0 -2.9,-11.1 -14.7,-7.8 v 3.9 l -17.2,2.9 -9,3.8 c 0,0 -27.7,12 -26.2,33.9 l -4.6,4.9 c 0,0 -2.2,13.8 5.2,22.5 7.5,8.7 -0.7,0.9 -0.7,0.9 0,0 -3.5,11.7 11.7,16.4 0,0 0,20.4 17.3,13 l 3.4,15.7 c 0,0 -42.6,8.5 -42.9,34.2 l -1.6,12.2 127.8,-1.3 c 0,0.2 -6.2,-21 -36.2,-19.9 z"
   id="path9" />&#10;			<g
   id="g32">&#10;				<polygon
   class="st4"
   points="140.1,165.7 145,161.3 157.2,174.2 159.2,181.8 "
   id="polygon9" />&#10;				<polygon
   class="st5"
   points="160.3,184.2 142.3,166.2 166.7,226.3 171.1,207.7 "
   id="polygon10" />&#10;				<path
   class="st6"
   d="m 169.7,142.2 c 0,0 -2.1,15.4 14.5,18.9 0,0 -9.6,6.5 -30,-2.2 l -10.5,-11 -0.9,-2.3 -3.1,-2.6 -2.1,-6.4 8.9,-4.3 c -0.1,0.1 11.4,14.4 23.2,9.9 z"
   id="path10" />&#10;				<path
   class="st7"
   d="m 163.9,117.4 c 0,0 5,0.7 5.1,4.2 l 2.1,-1.2 c 0,0 -0.5,-6 -7.2,-3 z"
   id="path11" />&#10;				<polygon
   class="st8"
   points="172.7,115.3 170.2,120.4 159.2,123.3 164.4,126.1 172.3,122.8 178.1,128.8 178.2,134.3 183.1,131 192.2,128.2 188.1,124.5 182.7,125.7 "
   id="polygon11" />&#10;				<path
   class="st9"
   d="m 119.5,113.1 c 0,0 21.1,6.5 21.7,-11.6 l 5.2,7.9 c 0,0 -2.8,9.9 -16.2,9.2 z"
   id="path12" />&#10;				<polygon
   class="st6"
   points="163.3,115.5 161.7,122.7 150.5,127.6 151.6,119.1 "
   id="polygon12" />&#10;				<path
   class="st8"
   d="m 101.5,207.8 c 0,0 22.4,-3.1 50.6,12 l -0.8,-4.3 v -2.3 l 13.8,8.6 -25.3,-65.9 5.9,-2.8 -1.2,-8.2 -4.6,-2.6 -7.4,-10.4 1,-3.2 c 0,0 -16.5,-4.9 -12.9,15 0,0 3.6,6.3 9.5,9.5 0,0 1.2,9.2 -8.1,20.2 l 0.4,17.4 8.1,7 c -0.2,0 -11.8,-0.4 -29,10 z"
   id="path13" />&#10;				<path
   class="st8"
   d="m 156.3,142.4 c 0,0 4.8,6.3 16.6,1.4 0,0 -4.8,-14.3 -25.6,-15.6 0,0 0.1,7.2 9,14.2 z"
   id="path14" />&#10;				<path
   class="st10"
   d="m 147.3,147.3 c 0,0 12.6,22.6 32.4,11.6 0,0 10.8,3.2 17.1,-0.3 0,0 0.4,11.8 -27.2,12 0,0 -21.2,-2.4 -23.5,-13.1 l -0.6,-1.7 c -0.1,-0.1 2.2,-4.3 1.8,-8.5 z"
   id="path15" />&#10;				<path
   class="st10"
   d="m 103.3,167.3 c 0,0 2.7,13.6 16.3,5 0,0 5.3,-8 1.4,-16.1 0,0 4.6,4.3 3.3,10.1 0,0 5.2,-2.7 2.8,-12 l -7.4,-8.5 c 0,0 -17.9,-8.9 -16.3,-17.5 l -4,8.7 c 0,0 -7.2,-0.3 -10.9,-6.6 0,0 -4.2,10.7 10.9,17.6 0,0 12.8,4.9 12.4,12 -0.2,-0.1 0.9,6.1 -8.5,7.3 z"
   id="path16" />&#10;				<path
   class="st9"
   d="m 84.2,213.4 c 0,0 16.2,-11.3 54.2,1.5 0,0 29.9,11.4 37.1,18.8 h -15.3 c 0,0 -39.6,-33 -77.9,-12.6 l -1.8,1 z"
   id="path17" />&#10;				<polygon
   class="st9"
   points="143.5,165.8 166.1,222.5 153.5,217 131.6,161.7 "
   id="polygon17" />&#10;				<path
   class="st6"
   d="m 172.5,218.5 c 0,0 11.6,5.6 21.1,17.4 h 10.8 c 0,0.1 -9.9,-23.1 -31.9,-17.4 z"
   id="path18" />&#10;				<path
   class="st7"
   d="m 182.1,235 6.9,-0.7 c 0,0 -8.9,-13.1 -20.5,-12.5 l 0.6,2.6 z"
   id="path19" />&#10;				<path
   class="st6"
   d="m 139.7,235 c 0,0 -36.6,-22.6 -60.4,0 z"
   id="path20" />&#10;				<path
   class="st7"
   d="m 105.7,162.8 c 0,0 12.1,12.5 15.3,2 0,0 0.5,-9.4 -9.3,-10.6 0,0 -15,-3.3 -19.7,-7 0,0.1 -4.7,8.8 13.7,15.6 z"
   id="path21" />&#10;				<path
   class="st7"
   d="m 121.9,148.6 c 0,0 -17.2,5.8 -18.6,-18.7 0,0 2.4,-23.6 18.8,-15.8 l 6.7,4.4 -16.4,4.4 c 0,-0.1 -12.5,17.4 9.5,25.7 z"
   id="path22" />&#10;				<path
   class="st7"
   d="m 130.7,118.2 c 0,0 12.3,-1 13.7,-10.4 l -0.7,10.4 c 0,0 5.6,12.1 -6.1,18.4 l -5.5,-1.4 c 0,0 2.9,-0.4 2,-10.8 z"
   id="path23" />&#10;				<path
   class="st7"
   d="m 102.6,119.1 9.5,-8.9 c 0,0 -6.4,-0.1 -6.9,-6.5 0,0 -8,8.7 -2.6,15.4 z"
   id="path24" />&#10;				<path
   class="st6"
   d="m 98.4,137.6 3.7,-14.3 c 0,0 -8.5,2.8 -3.7,-26.1 0,0 -12,13.7 -6.5,26.5 0.1,-0.1 -2.2,10 6.5,13.9 z"
   id="path25" />&#10;				<path
   class="st9"
   d="m 109.7,114.1 c 0,0 2.4,-7.7 18.3,-7 0,0 3.9,-0.4 5.2,-4.6 l -5.7,-3.9 c 0,0 -2.3,4.2 -16,1.7 0,0 -6.9,0.7 -9.1,7.9 z"
   id="path26" />&#10;				<path
   class="st9"
   d="m 100.7,94.7 c 0,0 10.9,-8.8 17,-8.6 l -0.9,4.7 c 0,0 -6.6,0.4 -17.5,5.4 z"
   id="path27" />&#10;				<path
   class="st7"
   d="m 138.7,89.9 c 0,0 14.8,0.6 13,-14.9 0,0 11,8.7 1.3,16.9 0,0.1 -6.5,4.1 -14.3,-2 z"
   id="path28" />&#10;				<path
   class="st7"
   d="m 163.7,90.4 c 0,0 -2.5,-5 5.9,-3.8 0,0 6.1,0.7 7.1,-3.2 1,-3.8 4.5,7.2 -5.6,9.8 0,0.1 -7,1.9 -7.4,-2.8 z"
   id="path29" />&#10;				<path
   class="st9"
   d="m 155,97.9 4.8,4.5 c 0,0 -3.5,2.2 -7.5,2.6 l 8.5,7.7 -7.7,6.5 -0.2,7.4 c 0,0 21.2,3.5 23.3,20.7 0,0 -1.9,-9 8.6,-12.4 0,0 0.1,0 0.1,0 l 1.8,6.4 c 0,0 -8.2,1.1 -4.1,10.8 l -4.5,2.2 c 0,0 -1.5,1.4 -7.4,-11.9 0,0 -2.9,-7.3 -13,-9.5 0,0 -5.6,-0.7 -10.4,-4.2 l -0.9,-7.5 c 0,0 13.7,-7.7 4.9,-16.8 l -4.2,-0.8 -2.1,-3.8 z"
   id="path30" />&#10;				<path
   class="st7"
   d="m 171.9,142.4 c 0,0 3.8,20.9 23.4,14.8 v 4.1 c 0,0 -13.5,3.6 -22,-5.4 -10.3,-10.7 -5,-15 -1.4,-13.5 z"
   id="path31" />&#10;				<path
   class="st7"
   d="m 159.3,176.7 c 0,0 16.5,2.7 13.8,19.4 l -1.3,12.5 -10,-20.5 c -0.1,0 -5.5,-10.2 -2.5,-11.4 z"
   id="path32" />&#10;			</g>&#10;			<path
   class="st11"
   d="m 154.7,94.2 c 0.9,-0.4 1.9,-0.7 2.8,-1.1 2.2,-1.2 4.1,-2.8 5.4,-5 0.4,-0.8 1,-0.9 1.6,-0.5 0.8,0.5 1.6,1.1 2.3,1.8 0.2,0.2 0.3,0.6 0.3,0.9 -0.1,0.9 0.3,1.2 1.1,1.4 2.8,0.9 5.5,0.1 6.9,-2.1 1.1,-1.9 1.1,-3.7 -0.2,-5.5 -1.3,-2 -1.3,-2 0.4,-3.7 1.4,-1.4 2.1,-1.4 3.4,0.2 2.9,3.6 3.2,9 0.5,12.2 -2.1,2.5 -4.6,4.5 -8.2,4.3 -0.2,0 -0.4,0.1 -0.8,0.1 0.3,0.4 0.4,0.7 0.7,0.9 1.9,1.9 3.7,3.8 5.6,5.6 0.6,0.6 1,1.2 0.9,2 -0.1,0.9 0.4,1.5 1,2.2 6,6.1 12,12.2 18,18.4 1.2,1.2 1.2,1.2 0,2.3 -1.6,1.5 -3.1,3 -4.7,4.5 -0.2,0.2 -0.4,0.4 -0.6,0.4 -1.1,0.2 -1.2,0.9 -1,1.9 0.5,2.1 0.9,4.3 1.4,6.4 0.2,0.9 -0.1,1.3 -0.9,1.5 -1.7,0.4 -3.4,1 -5.1,1.5 -1.5,0.5 -2.4,1.4 -2.6,3 -0.1,1.1 -0.4,2.2 -0.6,3.4 -0.2,0 -0.3,0 -0.3,-0.1 -1.5,-2.4 -2.3,-4.9 -1.2,-7.7 0.7,-1.7 2,-2.9 3.7,-3.6 1.3,-0.5 1.3,-0.6 1,-1.9 -0.1,-0.5 -0.2,-1 -0.3,-1.5 -0.3,-1.2 -0.4,-1.3 -1.5,-1 -0.3,0.1 -0.6,0.2 -0.9,0.3 -2.4,0.8 -2.4,0.8 -4.1,-1.1 -0.4,-0.5 -0.4,-0.8 0.1,-1.1 0.9,-0.8 1.8,-1.6 2.7,-2.3 0.5,-0.4 1.1,-0.7 1.7,-0.9 2.2,-0.7 4.5,-1.3 6.7,-1.9 1.3,-0.4 1.3,-0.6 0.4,-1.5 -4.3,-4.3 -8.6,-8.6 -12.9,-12.9 -0.4,-0.4 -0.6,-1.2 -1.1,-1.6 -0.6,-0.5 -1.3,-0.9 -2,-1.3 -0.2,0.3 -0.4,0.6 -0.5,0.9 -0.5,2.7 -1,5.4 -1.5,8.1 -0.1,0.7 -0.3,1.5 -0.4,2.2 -0.1,0 -0.2,0.1 -0.3,0.1 -0.5,-1 -1.3,-2 -1.6,-3.1 -0.6,-2.1 -2.7,-2.9 -4.4,-1.7 -0.8,0.6 -1.2,2.1 -1.4,3.3 -0.1,0.6 -0.2,1 -0.8,1.2 -1,0.4 -2,0.8 -3.1,1.2 -0.7,0.3 -1.1,0 -0.9,-0.7 0.5,-1.5 1,-3.1 1.6,-4.6 0.2,-0.5 0.3,-1.1 0.5,-1.6 -0.6,0.1 -1.2,0.1 -1.8,0.3 -1.8,0.7 -3.7,1.4 -5.5,2.1 -0.3,0.1 -0.6,0.1 -1,0.3 0.2,-0.4 0.3,-0.6 0.4,-0.7 2.3,-2.5 4.6,-4.9 6.9,-7.3 0.4,-0.4 0.9,-0.7 1.4,-0.9 2.9,-1.1 5.9,-2.1 8.8,-3.1 1.4,-0.5 1.5,-0.7 0.4,-1.8 -2.7,-2.7 -5.4,-5.3 -8,-8 -0.6,-0.7 -1.1,-0.7 -2,-0.2 -4.1,2.7 -8.7,3.6 -13.5,3.1 -0.4,0 -0.9,0 -1.5,0 0.2,0.4 0.4,0.7 0.5,1 3.1,5.4 3.2,10.8 0.2,16.3 -0.4,0.8 -0.5,1.4 -0.1,2.2 1.2,2.3 1.7,4.8 1.5,7.4 -0.1,1.2 0.4,2 0.9,3 1.6,3.1 3.7,5.7 6.6,7.5 0.9,0.5 1.9,0.8 2.9,1.3 0.8,0.4 1.7,0.7 2.3,1.2 0.9,0.7 1,1.9 0.5,2.8 -0.5,1 -1.2,1.4 -2.4,1.4 -1.9,-0.1 -3.6,-0.9 -5.2,-1.8 -3,-1.7 -5.3,-4 -7.3,-6.7 -0.8,-1 -0.9,-1 -1.8,-0.1 -1.1,1 -2.3,2 -3.5,2.9 -0.6,0.4 -0.9,0.8 -0.7,1.6 0.9,3.1 -0.7,5.1 -3.2,6 -2.4,0.8 -5.2,-0.4 -6.5,-2.8 -0.8,-1.5 -0.8,-3 -0.3,-4.5 0.2,-0.7 0.1,-1.1 -0.7,-1.4 -1.8,-0.7 -2.2,-2.8 -1,-4.3 0.7,-0.8 1.4,-1.7 2.1,-2.5 0.1,-0.1 0.1,-0.3 0.3,-0.6 -1.6,-0.2 -3.1,-0.1 -4.6,0.5 -3.5,1.4 -5.3,5.2 -4.4,9.2 1.4,5.8 5.4,9.3 10.8,11.4 2,0.8 4.1,1 6.3,0.8 1.5,-0.1 2.9,-0.5 3.9,-1.7 0.8,-1 0.7,-1.9 -0.4,-2.5 -0.3,-0.2 -0.5,-0.3 -0.7,-0.5 -1.2,-1 -1,-2.7 0.3,-3.5 1.2,-0.8 2.5,-0.9 3.6,-0.2 1.3,0.8 2.5,1.8 2.4,3.7 -0.1,1.4 0,2.8 -0.1,4.2 -0.1,0.8 -0.3,1.6 -0.6,2.2 -0.5,1 -0.7,1.9 0,3 1.5,2.4 3.5,4.3 5.7,5.9 2.6,1.9 5.5,3.3 8.6,4.1 2.3,0.6 4.8,0.9 7.1,1.1 5.6,0.3 11.1,-0.6 16.5,-1.8 1.7,-0.4 3.4,-0.8 5.1,-1.2 2.9,-0.8 4.4,-2.8 4.4,-6.1 0,-2.4 -2.1,-5.1 -4.5,-5.6 -2.4,-0.4 -3.2,-2 -3.6,-4 -0.1,-0.7 0,-1.1 0.7,-1.3 1.2,-0.3 2.4,-0.6 3.7,-1 0.7,-0.2 1.2,0.1 1.3,0.8 0.1,1.2 0.9,1.6 1.9,2.1 3.4,1.6 5.1,4.5 5.4,8.1 0.5,5.7 -2.3,9.9 -7.7,11.6 -3.1,1 -6.2,1.7 -9.4,2.4 -3.1,0.7 -5.2,2.6 -6.8,5.3 -1.3,2.2 -1.8,4.1 -0.5,6.7 1.7,3.3 1.7,7.1 0.8,10.7 -1.2,4.8 -2.4,9.5 -3.6,14.3 -0.3,1.4 -0.6,2.7 -1,4.1 -0.1,0.6 0.1,0.8 0.6,0.8 1.2,0 2.4,0 3.6,0.1 12.8,0.5 22.7,6.1 29.7,16.7 1.3,2 2.1,4.4 3,6.7 0.6,1.5 0.4,1.6 -1.1,1.6 -14,0 -28,-0.1 -42.1,-0.1 -26.3,0 -52.6,0 -79,0 -3.7,0 -7.4,0 -11.2,0 -1.4,0 -1.5,-0.1 -1.5,-1.5 -0.1,-7.2 1,-14.2 4.1,-20.7 5.1,-10.7 13.2,-18.1 24.1,-22.7 4.9,-2.1 10.1,-3.6 15.3,-4.7 1,-0.2 1.4,-0.6 1.4,-1.7 -0.1,-2.7 0,-5.3 0,-8 0,-1.2 -0.1,-1.4 -1.3,-1 -3.3,0.9 -6.6,0.9 -9.7,-0.5 -4.8,-2.2 -7.2,-6 -7.5,-11.2 -0.1,-2.4 -0.1,-2.4 -2.3,-3.2 -5.8,-2.1 -9.5,-6.2 -10.8,-12.3 -0.5,-2.2 -0.3,-4.4 0.2,-6.6 0.2,-0.8 0.1,-1.5 -0.3,-2.3 -4.9,-8.3 -5.1,-17.1 -2.4,-26.2 0.2,-0.6 0.4,-1.2 1.1,-1.4 0.2,-0.1 0.5,-0.5 0.5,-0.9 2.3,-11.5 8.8,-20 18.4,-26.4 3.7,-2.5 7.7,-4.3 12,-5.5 1.3,-0.4 2.5,-0.9 3.5,-1.8 3.6,-3.1 7.8,-4.8 12.5,-5.4 2.2,-0.2 4.4,-0.2 6.6,-0.2 0.9,0 1.2,-0.3 1.2,-1.1 0,-0.8 -0.1,-1.7 0,-2.5 0,-0.3 0.4,-0.8 0.6,-0.8 4,-0.1 8,-0.4 11.7,1.7 2.3,1.3 4.2,2.9 5.6,5.1 0.6,0.9 1.1,1.1 2.1,0.6 3.2,-1.6 6.6,-1.6 10,-1.1 0.5,0.1 0.8,0.3 0.8,0.9 0,0.9 0.2,1.9 0.3,2.8 0.2,1.2 -0.6,1.8 -2,1.6 -1.3,-0.2 -2.6,-0.4 -3.8,-0.5 -2.5,-0.1 -5.6,2.3 -6.2,4.7 -0.7,2.9 -2.1,5.4 -4.4,7.4 -0.2,0.2 -0.4,0.4 -0.6,0.6 0.1,0.1 0.2,0.2 0.2,0.3 z M 165,220.7 c -0.1,-0.9 -0.4,-1.6 -0.3,-2.2 0.3,-1.6 0.8,-3.1 1.2,-4.7 1.2,-4.3 2.3,-8.7 3.5,-13 0.4,-1.7 0.9,-3.3 1.3,-5 0.6,-2.4 1.2,-4.8 0.8,-7.3 -0.4,-2.4 -1.3,-4.7 -3.2,-6.1 -2.4,-1.8 -5.1,-3.2 -8.1,-3.9 -0.3,-0.1 -0.6,-0.1 -1.1,-0.2 0.8,2.8 1.6,5.4 4,7 0.9,0.6 1.5,1.2 1.9,2.2 0.3,0.8 0.5,1.6 -0.1,2.2 -0.6,0.6 -1.6,1.2 -2.4,0.6 -1.9,-1.4 -3.7,-2.9 -5.5,-4.3 0,0 0,-0.1 0,-0.1 -0.7,-1.4 -1.4,-2.7 -2,-4.2 -1.1,-2.8 -2.1,-5.7 -3.3,-8.4 -0.6,-1.5 -1.3,-3 -2.3,-4.3 -1.5,-1.9 -3.8,-2.5 -6.1,-3.1 -0.6,-0.2 -0.9,-0.4 -1.1,-1 -0.8,-2.2 -1.7,-4.3 -2.6,-6.5 -0.2,-0.4 -0.7,-0.8 -1.1,-0.9 -1.9,-0.4 -3.9,-0.6 -5.8,-0.9 -0.7,-0.1 -1.1,0.1 -1.1,0.8 0,1 0.2,2 0.1,3 -0.5,5 -2.5,9.2 -6.7,12.2 -0.9,0.6 -1.2,1.4 -1.2,2.4 0,5.4 0,10.9 0,16.3 0,1.3 -0.1,1.4 -1.4,1.7 -3.1,0.7 -6.3,1.3 -9.4,2.2 -5.5,1.5 -10.9,3.5 -15.7,6.7 -2.1,1.4 -4.5,2.5 -6.2,4.6 -0.9,1.1 -2.1,1.9 -2.9,3.1 -1.4,1.8 -2.6,3.8 -3.8,5.7 -0.8,1.3 -1.4,2.7 -2.2,4 0.5,0 0.8,-0.2 1.1,-0.3 1.9,-0.9 3.7,-1.9 5.6,-2.6 9,-3.3 18.2,-3.5 27.5,-2.1 16.2,2.6 30.9,9.1 44.4,18.4 0.6,0.4 1.5,0.7 2.2,0.7 3.5,0.1 6.9,0 10.4,0 0.3,0 0.7,-0.1 1,-0.2 0,-0.1 0.1,-0.2 0.1,-0.3 -0.5,-0.4 -0.9,-0.8 -1.4,-1.1 -10.3,-7 -21.2,-12.7 -32.8,-17.2 -1.6,-0.6 -3.3,-1.2 -4.9,-1.9 -1.1,-0.5 -1.5,-1.6 -1.2,-2.9 0.2,-1 1.2,-1.7 2.3,-1.7 0.6,0 1.1,0.1 1.7,0.3 2,0.7 4,1.5 6,2.3 0.4,0.1 0.7,0.3 1.2,0.5 -0.1,-0.4 -0.1,-0.7 -0.2,-0.9 -0.6,-1.7 -1.3,-3.3 -2,-5 -0.7,-1.8 -1.5,-3.5 -2.2,-5.2 -0.4,-1.1 -0.4,-2.1 0.4,-3 0.7,-0.9 1.7,-1 2.7,-0.8 1.2,0.3 1.7,1.2 2.1,2.2 2.1,5 4.1,10.1 6.2,15.1 0.2,0.5 0.6,1 1.1,1.2 3.3,1.7 6.7,3.4 10.1,5 0.3,0.4 0.8,0.6 1.4,0.9 z m -13.9,12.8 c 0,-0.1 0,-0.2 0.1,-0.3 -0.2,-0.2 -0.4,-0.5 -0.7,-0.6 -1.1,-0.7 -2.2,-1.4 -3.3,-2 -9.3,-5 -19.1,-8.7 -29.5,-10.6 -7.4,-1.4 -14.9,-1.5 -22.3,0.2 -5.2,1.1 -9.9,3.2 -14.2,6.4 -1.3,1 -2.2,2 -1.9,3.8 0.1,0.7 0,1.4 0,2.1 0,1.1 0.2,1.4 1.4,1.3 1.6,0 3.2,-0.2 4.8,-0.2 7.8,0 15.7,0 23.5,0 13.5,0 27,0 40.6,0 0.5,0 1,-0.1 1.5,-0.1 z m -25.4,-71.1 c 0.1,0 0.2,0 0.3,0 0.1,-0.6 0.3,-1.2 0.4,-1.8 0.3,-2.9 -0.3,-5.7 -2.1,-8 -1.6,-2.1 -3.1,-4.4 -6.5,-4.4 -3,0 -5.5,-1.6 -7.6,-3.9 -1.2,-1.3 -2.2,-2.7 -2.8,-4.4 -1.5,-4 -0.8,-8 0.3,-11.8 1,-3.5 3.1,-6.6 6.2,-8.8 2.3,-1.7 4.9,-2.8 7.7,-3.2 4.3,-0.7 8.4,-0.5 11.6,3 0.3,0.3 0.9,0.5 1.3,0.5 2,0 3.8,-0.6 5.3,-2 1.3,-1.2 2.4,-2.7 3.6,-4.1 0.2,-0.2 0.2,-0.6 0.1,-0.8 -0.1,-1.3 -0.3,-2.5 -0.4,-3.8 -0.1,-2.2 -0.9,-4 -2.1,-5.8 -0.4,-0.6 -0.6,-1.3 -0.7,-2 -0.1,-1.2 0,-2.4 -0.1,-3.6 0,-0.4 -0.3,-0.9 -0.6,-1 -1.9,-0.7 -4.2,1.2 -3.9,3.1 0.2,1.7 0,3.4 -0.8,4.9 -1.3,2.5 -3.2,4.3 -5.9,5.3 -1.9,0.7 -3.8,1 -5.8,1 -3.4,0 -6.6,0.9 -9.4,2.7 -5.8,3.6 -8.8,9.1 -10.5,15.4 -0.6,2.1 -0.6,4.4 -0.8,6.7 -0.3,3.3 0.1,6.5 1.4,9.5 1,2.2 2.3,3.9 4.5,5.1 2.9,1.7 5.3,4 5.9,7.6 0.5,2.7 0.4,5.3 -1.5,7.4 -0.8,0.9 -1.8,1.8 -3.1,1.9 -1.2,0.2 -2.4,0.3 -3.5,-0.2 -0.3,-0.1 -0.6,-0.1 -0.8,-0.1 -0.1,1.5 0.3,2.6 1.6,4.1 2.7,3.2 8.1,3.3 10.9,0.2 1.5,-1.7 2.2,-3.8 2.4,-6.1 0.3,-2.8 -0.4,-5.2 -1.9,-7.5 -0.9,-1.4 -0.9,-2 0.2,-3.3 0.1,-0.1 0.2,-0.2 0.3,-0.3 0.9,-1.2 1.7,-1.3 2.8,-0.2 2,1.9 3.4,4 3.8,6.8 0,0.7 0.1,1.3 0.2,1.9 z m -22.9,-45.9 c 0.1,0 0.3,0.1 0.4,0.1 0.5,-0.6 0.9,-1.2 1.4,-1.7 3.1,-4 6.9,-7.1 11.9,-8.5 2.6,-0.8 5.3,-0.7 7.9,-0.9 4.1,-0.3 6.3,-2.6 6.2,-6.6 0,-2.1 0.6,-3.8 2.1,-5.2 2.4,-2.3 5.3,-2.8 8.5,-2.4 1.6,0.2 3.2,0.5 4.8,0.4 2.6,-0.2 5.1,-1 6.6,-3.3 0.8,-1.1 1.2,-2.4 1.7,-3.7 0.3,-0.7 0.4,-1.5 0.4,-2.2 0.1,-1.2 -0.5,-2.1 -1.2,-3.1 -1.9,-2.5 -4.3,-3.9 -7.3,-4.3 -0.9,-0.1 -1.2,0.3 -1.2,1.1 0,1.2 0,2.4 -0.1,3.6 0,0.7 -0.1,1.4 -0.4,2 -1,2.8 -2.9,4.8 -5.7,5.7 -1.5,0.5 -3.2,0.7 -4.8,1 -3.4,0.5 -5.6,2.5 -7,5.5 -0.7,1.4 -1.6,2.8 -2.7,3.9 -2.3,2.4 -5.4,3.2 -8.6,3.2 -6.2,0 -11.9,4.9 -13.1,10.5 0,1.6 0,3.3 0.2,4.9 z m 11.5,-27.9 c -0.1,-0.1 -0.2,-0.1 -0.3,-0.2 -0.5,0.2 -0.9,0.4 -1.4,0.5 -3,1.3 -5.7,3.2 -8.2,5.2 -5.6,4.4 -10,9.6 -12.2,16.5 -1.1,3.4 -0.6,6.6 0.5,9.7 0.6,1.7 1.1,3.3 0.6,5.2 -0.8,3.4 0.6,6.3 3.1,8.6 0.8,0.7 1.2,0.5 1.4,-0.5 0.6,-2.9 1.2,-5.9 1.8,-8.8 0.1,-0.3 0,-0.7 -0.1,-1 -0.4,-1.1 -0.8,-2.3 -1.3,-3.4 -1.2,-2.7 -1.1,-5.5 -0.7,-8.3 1.3,-9.5 9.4,-16.4 18.3,-16.2 3.2,0 5.6,-1.4 6.9,-4.5 1,-2.2 2.3,-4.2 4.4,-5.7 2.3,-1.6 4.9,-2.4 7.7,-2.6 1.7,-0.1 3.3,-0.7 4.3,-2.1 0.2,-0.3 0.3,-0.7 0.4,-1 -0.3,-0.1 -0.7,-0.3 -1,-0.3 -1.5,0 -3,0.1 -4.5,0.1 -4.1,0.1 -7.6,1.7 -10.8,4.2 -1.6,1.2 -2.7,2.8 -3.4,4.7 -1,2.6 -3.1,3.6 -5.8,2.9 -0.6,-0.1 -0.8,-0.4 -0.6,-1 0.5,-0.7 0.7,-1.4 0.9,-2 z m -2.7,45.6 c 0.1,3.5 1.3,6.2 4.2,8 0.3,0.2 0.8,0.2 1.2,0.2 0,-0.4 0.1,-0.8 0,-1.1 -0.7,-2.4 -0.6,-4.9 -0.1,-7.2 1.2,-5.2 6.2,-9.1 11.6,-9.4 0.4,0 0.8,0 1.2,-0.1 0.6,-0.2 0.8,-0.6 0.4,-1.1 -1.3,-1.4 -2.8,-2.4 -4.7,-2.6 -3,-0.3 -5.7,0.5 -8.1,2.4 -3.9,2.9 -5.3,6.7 -5.7,10.9 z m 63.2,84.6 c 0,0.1 -0.1,0.2 -0.1,0.3 0.3,0.2 0.6,0.5 0.9,0.6 1.9,1 3.8,2 5.7,3.1 4.7,2.7 8.8,6 12.4,10 0.4,0.4 1.1,0.7 1.6,0.8 1.6,0.1 3.2,0.1 4.8,0 0.4,0 0.7,-0.2 1.1,-0.3 -0.1,-0.3 -0.2,-0.7 -0.4,-1 -1.6,-2.4 -3.5,-4.4 -5.8,-6.1 -1.8,-1.4 -3.7,-2.7 -5.7,-3.8 -3.9,-2.1 -8.2,-3.3 -12.6,-3.6 -0.6,-0.1 -1.3,0 -1.9,0 z m -65.3,-59.3 c 0,0 0.1,0 0.1,0 -0.2,-0.5 -0.3,-1 -0.5,-1.5 -1.2,-2.6 -3.5,-3.9 -6.1,-4.6 -3.6,-1 -7.2,-1.9 -10.1,-4.5 -0.2,-0.2 -0.6,-0.3 -0.8,-0.2 -0.2,0.1 -0.3,0.5 -0.3,0.8 0.4,1.4 0.8,2.9 1.5,4.2 1.5,2.7 4.1,4.1 7,4.8 2.2,0.6 4.3,1.2 6.2,2.5 0.6,0.4 1.5,1.1 2,0.9 1.2,-0.3 0.9,-1.4 1,-2.4 0,0.1 0,0.1 0,0 z m 33.2,-32.6 c -0.2,-1.1 -0.3,-2.2 -0.5,-3.2 -0.1,-0.7 -0.6,-0.9 -1.3,-0.6 -1.4,0.5 -2.8,1 -4.2,1.3 -0.8,0.2 -1,0.5 -0.8,1.3 0.3,1 0.7,2.2 0.6,3.2 -0.2,1.7 -0.5,3.5 -1.6,5 -0.5,0.6 -0.1,0.8 0.5,0.9 1.7,0.2 3.1,-0.4 4.3,-1.4 1.9,-1.7 3,-3.9 3,-6.5 z m 26.7,95.7 c -0.1,0.1 -0.2,0.3 -0.2,0.4 0.4,0.3 0.8,0.6 1.3,0.9 4,2.5 7.9,5.2 11.3,8.4 1.3,1.2 2.7,1.5 4.3,1.3 0.2,0 0.6,-0.2 0.6,-0.3 0.1,-0.2 -0.1,-0.5 -0.3,-0.7 -0.8,-0.7 -1.5,-1.6 -2.4,-2.1 -3.4,-2 -6.8,-4 -10.2,-5.9 -1.4,-0.8 -2.9,-1.4 -4.4,-2 z M 88.8,132.1 c -0.1,0 -0.1,0 -0.2,0.1 0,0.3 0,0.7 0.1,1 0.8,2.1 1.5,4.3 2.6,6.2 1.4,2.7 3.3,5 6.2,6.3 0.2,0.1 0.5,0.1 0.8,0.1 0,-0.2 0.1,-0.5 0.1,-0.7 -0.2,-1.1 -0.4,-2.3 -0.7,-3.4 -0.1,-0.4 -0.4,-0.8 -0.8,-1 -1.2,-0.8 -2.5,-1.5 -3.7,-2.3 -0.1,-0.1 -0.1,-0.1 -0.2,-0.2 -0.9,-1.2 -1.7,-2.5 -2.6,-3.7 -0.5,-0.9 -1.1,-1.7 -1.6,-2.4 z m -0.7,-6.4 c 0.1,0 0.2,0 0.3,0 0.5,-0.8 0.2,-1.6 0,-2.4 -0.1,0 -0.2,0 -0.3,0 0,0.8 0,1.6 0,2.4 z"
   id="path33" />&#10;		</g>&#10;	</g>&#10;</g></g><rect
     style="fill:none;stroke-width:3.80305"
     id="rect35"
     width="100"
     height="100"
     x="0.34870848"
     y="0.17435424" /></g></svg>
