<?xml version="1.0" encoding="utf-8"?>
<!-- Generator: Adobe Illustrator 28.0.0, SVG Export Plug-In . SVG Version: 6.00 Build 0)  -->
<svg version="1.1" xmlns="http://www.w3.org/2000/svg" xmlns:xlink="http://www.w3.org/1999/xlink" x="0px" y="0px"
	 viewBox="0 0 283.5 283.5" style="enable-background:new 0 0 283.5 283.5;" xml:space="preserve">
<style type="text/css">
	.st0{clip-path:url(#SVGID_00000142166689665322827780000001775937036831383209_);}
	.st1{fill:none;stroke:#01003A;stroke-width:0.3894;stroke-miterlimit:10;}
	.st2{clip-path:url(#SVGID_00000173841278404186162250000009911135465410691500_);}
	.st3{fill:#FEFDE0;}
	.st4{fill:#007EDD;}
	.st5{fill:#00B0FD;}
	.st6{fill:#00B5FD;}
	.st7{fill:#00F0CC;}
	.st8{fill:#FF1535;}
	.st9{fill:#FF8700;}
	.st10{fill:#0078DD;}
	.st11{fill:#01003A;}
</style>
<g id="Capa_3">
	<g>
		<defs>
			<circle id="SVGID_1_" cx="141.7" cy="141.7" r="94.6"/>
		</defs>
		<use xlink:href="#SVGID_1_"  style="overflow:visible;fill:#FEFDE0;"/>
		<clipPath id="SVGID_00000141452091100790233830000008324948813889308806_">
			<use xlink:href="#SVGID_1_"  style="overflow:visible;"/>
		</clipPath>
		<g style="clip-path:url(#SVGID_00000141452091100790233830000008324948813889308806_);">
			<circle class="st1" cx="100.3" cy="118.2" r="47.7"/>
			<circle class="st1" cx="100.3" cy="164.6" r="47.7"/>
			<circle class="st1" cx="183.2" cy="118.2" r="47.7"/>
			<circle class="st1" cx="183.2" cy="164.6" r="47.7"/>
			<circle class="st1" cx="141.7" cy="189.4" r="47.7"/>
			<circle class="st1" cx="141.7" cy="94" r="47.7"/>
			<circle class="st1" cx="141.7" cy="141.7" r="47.7"/>
			<polygon class="st1" points="59.2,94 224.3,94 141.7,237.1 			"/>
		</g>
		<use xlink:href="#SVGID_1_"  style="overflow:visible;fill:none;stroke:#01003A;stroke-width:4.1538;stroke-miterlimit:10;"/>
	</g>
</g>
<g id="Capa_2">
	<g>
		<defs>
			<circle id="SVGID_00000137821396309829957310000001957051204749329331_" cx="141.2" cy="139.6" r="94.6"/>
		</defs>
		<clipPath id="SVGID_00000150077067047614414450000012899492468534120638_">
			<use xlink:href="#SVGID_00000137821396309829957310000001957051204749329331_"  style="overflow:visible;"/>
		</clipPath>
		<g style="clip-path:url(#SVGID_00000150077067047614414450000012899492468534120638_);">
			<path class="st3" d="M168.9,216.6l1.5-42.4c0,0,35.5-6.5,24.6-20.1c0,0-2.7-2.6-2.8-6c-0.1-3.4-4.5-8-4.5-8l-1.2-7.4l8.6-3.8
				L173,107.8l1.1-3.4l-8.6-8.6c0,0,16.4,0.8,11.1-12.4c0,0-7.4-6-12-4.4l-8,2.3c0,0-2.9-11.1-14.7-7.8v3.9l-17.2,2.9l-9,3.8
				c0,0-27.7,12-26.2,33.9l-4.6,4.9c0,0-2.2,13.8,5.2,22.5c7.5,8.7-0.7,0.9-0.7,0.9s-3.5,11.7,11.7,16.4c0,0,0,20.4,17.3,13
				l3.4,15.7c0,0-42.6,8.5-42.9,34.2l-1.6,12.2l127.8-1.3C205.1,236.7,198.9,215.5,168.9,216.6z"/>
			<g>
				<polygon class="st4" points="159.2,181.8 140.1,165.7 145,161.3 157.2,174.2 				"/>
				<polygon class="st5" points="171.1,207.7 160.3,184.2 142.3,166.2 166.7,226.3 				"/>
				<path class="st6" d="M169.7,142.2c0,0-2.1,15.4,14.5,18.9c0,0-9.6,6.5-30-2.2l-10.5-11l-0.9-2.3l-3.1-2.6l-2.1-6.4l8.9-4.3
					C146.4,132.4,157.9,146.7,169.7,142.2z"/>
				<path class="st7" d="M163.9,117.4c0,0,5,0.7,5.1,4.2l2.1-1.2C171.1,120.4,170.6,114.4,163.9,117.4z"/>
				<polygon class="st8" points="159.2,123.3 164.4,126.1 172.3,122.8 178.1,128.8 178.2,134.3 183.1,131 192.2,128.2 188.1,124.5 
					182.7,125.7 172.7,115.3 170.2,120.4 				"/>
				<path class="st9" d="M119.5,113.1c0,0,21.1,6.5,21.7-11.6l5.2,7.9c0,0-2.8,9.9-16.2,9.2L119.5,113.1z"/>
				<polygon class="st6" points="151.6,119.1 163.3,115.5 161.7,122.7 150.5,127.6 				"/>
				<path class="st8" d="M101.5,207.8c0,0,22.4-3.1,50.6,12l-0.8-4.3v-2.3l13.8,8.6l-25.3-65.9l5.9-2.8l-1.2-8.2l-4.6-2.6l-7.4-10.4
					l1-3.2c0,0-16.5-4.9-12.9,15c0,0,3.6,6.3,9.5,9.5c0,0,1.2,9.2-8.1,20.2l0.4,17.4l8.1,7C130.3,197.8,118.7,197.4,101.5,207.8z"/>
				<path class="st8" d="M156.3,142.4c0,0,4.8,6.3,16.6,1.4c0,0-4.8-14.3-25.6-15.6C147.3,128.2,147.4,135.4,156.3,142.4z"/>
				<path class="st10" d="M147.3,147.3c0,0,12.6,22.6,32.4,11.6c0,0,10.8,3.2,17.1-0.3c0,0,0.4,11.8-27.2,12c0,0-21.2-2.4-23.5-13.1
					l-0.6-1.7C145.4,155.7,147.7,151.5,147.3,147.3z"/>
				<path class="st10" d="M103.3,167.3c0,0,2.7,13.6,16.3,5c0,0,5.3-8,1.4-16.1c0,0,4.6,4.3,3.3,10.1c0,0,5.2-2.7,2.8-12l-7.4-8.5
					c0,0-17.9-8.9-16.3-17.5l-4,8.7c0,0-7.2-0.3-10.9-6.6c0,0-4.2,10.7,10.9,17.6c0,0,12.8,4.9,12.4,12
					C111.6,159.9,112.7,166.1,103.3,167.3z"/>
				<path class="st9" d="M84.2,213.4c0,0,16.2-11.3,54.2,1.5c0,0,29.9,11.4,37.1,18.8h-15.3c0,0-39.6-33-77.9-12.6l-1.8,1
					L84.2,213.4z"/>
				<polygon class="st9" points="131.6,161.7 143.5,165.8 166.1,222.5 153.5,217 				"/>
				<path class="st6" d="M172.5,218.5c0,0,11.6,5.6,21.1,17.4h10.8C204.4,236,194.5,212.8,172.5,218.5z"/>
				<path class="st7" d="M182.1,235l6.9-0.7c0,0-8.9-13.1-20.5-12.5l0.6,2.6L182.1,235z"/>
				<path class="st6" d="M139.7,235c0,0-36.6-22.6-60.4,0H139.7z"/>
				<path class="st7" d="M105.7,162.8c0,0,12.1,12.5,15.3,2c0,0,0.5-9.4-9.3-10.6c0,0-15-3.3-19.7-7C92,147.3,87.3,156,105.7,162.8z
					"/>
				<path class="st7" d="M121.9,148.6c0,0-17.2,5.8-18.6-18.7c0,0,2.4-23.6,18.8-15.8l6.7,4.4l-16.4,4.4
					C112.4,122.8,99.9,140.3,121.9,148.6z"/>
				<path class="st7" d="M130.7,118.2c0,0,12.3-1,13.7-10.4l-0.7,10.4c0,0,5.6,12.1-6.1,18.4l-5.5-1.4c0,0,2.9-0.4,2-10.8
					L130.7,118.2z"/>
				<path class="st7" d="M102.6,119.1l9.5-8.9c0,0-6.4-0.1-6.9-6.5C105.2,103.7,97.2,112.4,102.6,119.1z"/>
				<path class="st6" d="M98.4,137.6l3.7-14.3c0,0-8.5,2.8-3.7-26.1c0,0-12,13.7-6.5,26.5C92,123.6,89.7,133.7,98.4,137.6z"/>
				<path class="st9" d="M109.7,114.1c0,0,2.4-7.7,18.3-7c0,0,3.9-0.4,5.2-4.6l-5.7-3.9c0,0-2.3,4.2-16,1.7c0,0-6.9,0.7-9.1,7.9
					L109.7,114.1z"/>
				<path class="st9" d="M100.7,94.7c0,0,10.9-8.8,17-8.6l-0.9,4.7c0,0-6.6,0.4-17.5,5.4L100.7,94.7z"/>
				<path class="st7" d="M138.7,89.9c0,0,14.8,0.6,13-14.9c0,0,11,8.7,1.3,16.9C153,92,146.5,96,138.7,89.9z"/>
				<path class="st7" d="M163.7,90.4c0,0-2.5-5,5.9-3.8c0,0,6.1,0.7,7.1-3.2c1-3.8,4.5,7.2-5.6,9.8
					C171.1,93.3,164.1,95.1,163.7,90.4z"/>
				<path class="st9" d="M155,97.9l4.8,4.5c0,0-3.5,2.2-7.5,2.6l8.5,7.7l-7.7,6.5l-0.2,7.4c0,0,21.2,3.5,23.3,20.7
					c0,0-1.9-9,8.6-12.4c0,0,0.1,0,0.1,0l1.8,6.4c0,0-8.2,1.1-4.1,10.8l-4.5,2.2c0,0-1.5,1.4-7.4-11.9c0,0-2.9-7.3-13-9.5
					c0,0-5.6-0.7-10.4-4.2l-0.9-7.5c0,0,13.7-7.7,4.9-16.8l-4.2-0.8l-2.1-3.8L155,97.9z"/>
				<path class="st7" d="M171.9,142.4c0,0,3.8,20.9,23.4,14.8v4.1c0,0-13.5,3.6-22-5.4C163,145.2,168.3,140.9,171.9,142.4z"/>
				<path class="st7" d="M159.3,176.7c0,0,16.5,2.7,13.8,19.4l-1.3,12.5l-10-20.5C161.7,188.1,156.3,177.9,159.3,176.7z"/>
			</g>
			<path class="st11" d="M154.7,94.2c0.9-0.4,1.9-0.7,2.8-1.1c2.2-1.2,4.1-2.8,5.4-5c0.4-0.8,1-0.9,1.6-0.5c0.8,0.5,1.6,1.1,2.3,1.8
				c0.2,0.2,0.3,0.6,0.3,0.9c-0.1,0.9,0.3,1.2,1.1,1.4c2.8,0.9,5.5,0.1,6.9-2.1c1.1-1.9,1.1-3.7-0.2-5.5c-1.3-2-1.3-2,0.4-3.7
				c1.4-1.4,2.1-1.4,3.4,0.2c2.9,3.6,3.2,9,0.5,12.2c-2.1,2.5-4.6,4.5-8.2,4.3c-0.2,0-0.4,0.1-0.8,0.1c0.3,0.4,0.4,0.7,0.7,0.9
				c1.9,1.9,3.7,3.8,5.6,5.6c0.6,0.6,1,1.2,0.9,2c-0.1,0.9,0.4,1.5,1,2.2c6,6.1,12,12.2,18,18.4c1.2,1.2,1.2,1.2,0,2.3
				c-1.6,1.5-3.1,3-4.7,4.5c-0.2,0.2-0.4,0.4-0.6,0.4c-1.1,0.2-1.2,0.9-1,1.9c0.5,2.1,0.9,4.3,1.4,6.4c0.2,0.9-0.1,1.3-0.9,1.5
				c-1.7,0.4-3.4,1-5.1,1.5c-1.5,0.5-2.4,1.4-2.6,3c-0.1,1.1-0.4,2.2-0.6,3.4c-0.2,0-0.3,0-0.3-0.1c-1.5-2.4-2.3-4.9-1.2-7.7
				c0.7-1.7,2-2.9,3.7-3.6c1.3-0.5,1.3-0.6,1-1.9c-0.1-0.5-0.2-1-0.3-1.5c-0.3-1.2-0.4-1.3-1.5-1c-0.3,0.1-0.6,0.2-0.9,0.3
				c-2.4,0.8-2.4,0.8-4.1-1.1c-0.4-0.5-0.4-0.8,0.1-1.1c0.9-0.8,1.8-1.6,2.7-2.3c0.5-0.4,1.1-0.7,1.7-0.9c2.2-0.7,4.5-1.3,6.7-1.9
				c1.3-0.4,1.3-0.6,0.4-1.5c-4.3-4.3-8.6-8.6-12.9-12.9c-0.4-0.4-0.6-1.2-1.1-1.6c-0.6-0.5-1.3-0.9-2-1.3c-0.2,0.3-0.4,0.6-0.5,0.9
				c-0.5,2.7-1,5.4-1.5,8.1c-0.1,0.7-0.3,1.5-0.4,2.2c-0.1,0-0.2,0.1-0.3,0.1c-0.5-1-1.3-2-1.6-3.1c-0.6-2.1-2.7-2.9-4.4-1.7
				c-0.8,0.6-1.2,2.1-1.4,3.3c-0.1,0.6-0.2,1-0.8,1.2c-1,0.4-2,0.8-3.1,1.2c-0.7,0.3-1.1,0-0.9-0.7c0.5-1.5,1-3.1,1.6-4.6
				c0.2-0.5,0.3-1.1,0.5-1.6c-0.6,0.1-1.2,0.1-1.8,0.3c-1.8,0.7-3.7,1.4-5.5,2.1c-0.3,0.1-0.6,0.1-1,0.3c0.2-0.4,0.3-0.6,0.4-0.7
				c2.3-2.5,4.6-4.9,6.9-7.3c0.4-0.4,0.9-0.7,1.4-0.9c2.9-1.1,5.9-2.1,8.8-3.1c1.4-0.5,1.5-0.7,0.4-1.8c-2.7-2.7-5.4-5.3-8-8
				c-0.6-0.7-1.1-0.7-2-0.2c-4.1,2.7-8.7,3.6-13.5,3.1c-0.4,0-0.9,0-1.5,0c0.2,0.4,0.4,0.7,0.5,1c3.1,5.4,3.2,10.8,0.2,16.3
				c-0.4,0.8-0.5,1.4-0.1,2.2c1.2,2.3,1.7,4.8,1.5,7.4c-0.1,1.2,0.4,2,0.9,3c1.6,3.1,3.7,5.7,6.6,7.5c0.9,0.5,1.9,0.8,2.9,1.3
				c0.8,0.4,1.7,0.7,2.3,1.2c0.9,0.7,1,1.9,0.5,2.8c-0.5,1-1.2,1.4-2.4,1.4c-1.9-0.1-3.6-0.9-5.2-1.8c-3-1.7-5.3-4-7.3-6.7
				c-0.8-1-0.9-1-1.8-0.1c-1.1,1-2.3,2-3.5,2.9c-0.6,0.4-0.9,0.8-0.7,1.6c0.9,3.1-0.7,5.1-3.2,6c-2.4,0.8-5.2-0.4-6.5-2.8
				c-0.8-1.5-0.8-3-0.3-4.5c0.2-0.7,0.1-1.1-0.7-1.4c-1.8-0.7-2.2-2.8-1-4.3c0.7-0.8,1.4-1.7,2.1-2.5c0.1-0.1,0.1-0.3,0.3-0.6
				c-1.6-0.2-3.1-0.1-4.6,0.5c-3.5,1.4-5.3,5.2-4.4,9.2c1.4,5.8,5.4,9.3,10.8,11.4c2,0.8,4.1,1,6.3,0.8c1.5-0.1,2.9-0.5,3.9-1.7
				c0.8-1,0.7-1.9-0.4-2.5c-0.3-0.2-0.5-0.3-0.7-0.5c-1.2-1-1-2.7,0.3-3.5c1.2-0.8,2.5-0.9,3.6-0.2c1.3,0.8,2.5,1.8,2.4,3.7
				c-0.1,1.4,0,2.8-0.1,4.2c-0.1,0.8-0.3,1.6-0.6,2.2c-0.5,1-0.7,1.9,0,3c1.5,2.4,3.5,4.3,5.7,5.9c2.6,1.9,5.5,3.3,8.6,4.1
				c2.3,0.6,4.8,0.9,7.1,1.1c5.6,0.3,11.1-0.6,16.5-1.8c1.7-0.4,3.4-0.8,5.1-1.2c2.9-0.8,4.4-2.8,4.4-6.1c0-2.4-2.1-5.1-4.5-5.6
				c-2.4-0.4-3.2-2-3.6-4c-0.1-0.7,0-1.1,0.7-1.3c1.2-0.3,2.4-0.6,3.7-1c0.7-0.2,1.2,0.1,1.3,0.8c0.1,1.2,0.9,1.6,1.9,2.1
				c3.4,1.6,5.1,4.5,5.4,8.1c0.5,5.7-2.3,9.9-7.7,11.6c-3.1,1-6.2,1.7-9.4,2.4c-3.1,0.7-5.2,2.6-6.8,5.3c-1.3,2.2-1.8,4.1-0.5,6.7
				c1.7,3.3,1.7,7.1,0.8,10.7c-1.2,4.8-2.4,9.5-3.6,14.3c-0.3,1.4-0.6,2.7-1,4.1c-0.1,0.6,0.1,0.8,0.6,0.8c1.2,0,2.4,0,3.6,0.1
				c12.8,0.5,22.7,6.1,29.7,16.7c1.3,2,2.1,4.4,3,6.7c0.6,1.5,0.4,1.6-1.1,1.6c-14,0-28-0.1-42.1-0.1c-26.3,0-52.6,0-79,0
				c-3.7,0-7.4,0-11.2,0c-1.4,0-1.5-0.1-1.5-1.5c-0.1-7.2,1-14.2,4.1-20.7c5.1-10.7,13.2-18.1,24.1-22.7c4.9-2.1,10.1-3.6,15.3-4.7
				c1-0.2,1.4-0.6,1.4-1.7c-0.1-2.7,0-5.3,0-8c0-1.2-0.1-1.4-1.3-1c-3.3,0.9-6.6,0.9-9.7-0.5c-4.8-2.2-7.2-6-7.5-11.2
				c-0.1-2.4-0.1-2.4-2.3-3.2c-5.8-2.1-9.5-6.2-10.8-12.3c-0.5-2.2-0.3-4.4,0.2-6.6c0.2-0.8,0.1-1.5-0.3-2.3
				c-4.9-8.3-5.1-17.1-2.4-26.2c0.2-0.6,0.4-1.2,1.1-1.4c0.2-0.1,0.5-0.5,0.5-0.9c2.3-11.5,8.8-20,18.4-26.4c3.7-2.5,7.7-4.3,12-5.5
				c1.3-0.4,2.5-0.9,3.5-1.8c3.6-3.1,7.8-4.8,12.5-5.4c2.2-0.2,4.4-0.2,6.6-0.2c0.9,0,1.2-0.3,1.2-1.1c0-0.8-0.1-1.7,0-2.5
				c0-0.3,0.4-0.8,0.6-0.8c4-0.1,8-0.4,11.7,1.7c2.3,1.3,4.2,2.9,5.6,5.1c0.6,0.9,1.1,1.1,2.1,0.6c3.2-1.6,6.6-1.6,10-1.1
				c0.5,0.1,0.8,0.3,0.8,0.9c0,0.9,0.2,1.9,0.3,2.8c0.2,1.2-0.6,1.8-2,1.6c-1.3-0.2-2.6-0.4-3.8-0.5c-2.5-0.1-5.6,2.3-6.2,4.7
				c-0.7,2.9-2.1,5.4-4.4,7.4c-0.2,0.2-0.4,0.4-0.6,0.6C154.6,94,154.7,94.1,154.7,94.2z M165,220.7c-0.1-0.9-0.4-1.6-0.3-2.2
				c0.3-1.6,0.8-3.1,1.2-4.7c1.2-4.3,2.3-8.7,3.5-13c0.4-1.7,0.9-3.3,1.3-5c0.6-2.4,1.2-4.8,0.8-7.3c-0.4-2.4-1.3-4.7-3.2-6.1
				c-2.4-1.8-5.1-3.2-8.1-3.9c-0.3-0.1-0.6-0.1-1.1-0.2c0.8,2.8,1.6,5.4,4,7c0.9,0.6,1.5,1.2,1.9,2.2c0.3,0.8,0.5,1.6-0.1,2.2
				c-0.6,0.6-1.6,1.2-2.4,0.6c-1.9-1.4-3.7-2.9-5.5-4.3c0,0,0-0.1,0-0.1c-0.7-1.4-1.4-2.7-2-4.2c-1.1-2.8-2.1-5.7-3.3-8.4
				c-0.6-1.5-1.3-3-2.3-4.3c-1.5-1.9-3.8-2.5-6.1-3.1c-0.6-0.2-0.9-0.4-1.1-1c-0.8-2.2-1.7-4.3-2.6-6.5c-0.2-0.4-0.7-0.8-1.1-0.9
				c-1.9-0.4-3.9-0.6-5.8-0.9c-0.7-0.1-1.1,0.1-1.1,0.8c0,1,0.2,2,0.1,3c-0.5,5-2.5,9.2-6.7,12.2c-0.9,0.6-1.2,1.4-1.2,2.4
				c0,5.4,0,10.9,0,16.3c0,1.3-0.1,1.4-1.4,1.7c-3.1,0.7-6.3,1.3-9.4,2.2c-5.5,1.5-10.9,3.5-15.7,6.7c-2.1,1.4-4.5,2.5-6.2,4.6
				c-0.9,1.1-2.1,1.9-2.9,3.1c-1.4,1.8-2.6,3.8-3.8,5.7c-0.8,1.3-1.4,2.7-2.2,4c0.5,0,0.8-0.2,1.1-0.3c1.9-0.9,3.7-1.9,5.6-2.6
				c9-3.3,18.2-3.5,27.5-2.1c16.2,2.6,30.9,9.1,44.4,18.4c0.6,0.4,1.5,0.7,2.2,0.7c3.5,0.1,6.9,0,10.4,0c0.3,0,0.7-0.1,1-0.2
				c0-0.1,0.1-0.2,0.1-0.3c-0.5-0.4-0.9-0.8-1.4-1.1c-10.3-7-21.2-12.7-32.8-17.2c-1.6-0.6-3.3-1.2-4.9-1.9
				c-1.1-0.5-1.5-1.6-1.2-2.9c0.2-1,1.2-1.7,2.3-1.7c0.6,0,1.1,0.1,1.7,0.3c2,0.7,4,1.5,6,2.3c0.4,0.1,0.7,0.3,1.2,0.5
				c-0.1-0.4-0.1-0.7-0.2-0.9c-0.6-1.7-1.3-3.3-2-5c-0.7-1.8-1.5-3.5-2.2-5.2c-0.4-1.1-0.4-2.1,0.4-3c0.7-0.9,1.7-1,2.7-0.8
				c1.2,0.3,1.7,1.2,2.1,2.2c2.1,5,4.1,10.1,6.2,15.1c0.2,0.5,0.6,1,1.1,1.2c3.3,1.7,6.7,3.4,10.1,5
				C163.9,220.2,164.4,220.4,165,220.7z M151.1,233.5c0-0.1,0-0.2,0.1-0.3c-0.2-0.2-0.4-0.5-0.7-0.6c-1.1-0.7-2.2-1.4-3.3-2
				c-9.3-5-19.1-8.7-29.5-10.6c-7.4-1.4-14.9-1.5-22.3,0.2c-5.2,1.1-9.9,3.2-14.2,6.4c-1.3,1-2.2,2-1.9,3.8c0.1,0.7,0,1.4,0,2.1
				c0,1.1,0.2,1.4,1.4,1.3c1.6,0,3.2-0.2,4.8-0.2c7.8,0,15.7,0,23.5,0c13.5,0,27,0,40.6,0C150.1,233.6,150.6,233.5,151.1,233.5z
				 M125.7,162.4c0.1,0,0.2,0,0.3,0c0.1-0.6,0.3-1.2,0.4-1.8c0.3-2.9-0.3-5.7-2.1-8c-1.6-2.1-3.1-4.4-6.5-4.4c-3,0-5.5-1.6-7.6-3.9
				c-1.2-1.3-2.2-2.7-2.8-4.4c-1.5-4-0.8-8,0.3-11.8c1-3.5,3.1-6.6,6.2-8.8c2.3-1.7,4.9-2.8,7.7-3.2c4.3-0.7,8.4-0.5,11.6,3
				c0.3,0.3,0.9,0.5,1.3,0.5c2,0,3.8-0.6,5.3-2c1.3-1.2,2.4-2.7,3.6-4.1c0.2-0.2,0.2-0.6,0.1-0.8c-0.1-1.3-0.3-2.5-0.4-3.8
				c-0.1-2.2-0.9-4-2.1-5.8c-0.4-0.6-0.6-1.3-0.7-2c-0.1-1.2,0-2.4-0.1-3.6c0-0.4-0.3-0.9-0.6-1c-1.9-0.7-4.2,1.2-3.9,3.1
				c0.2,1.7,0,3.4-0.8,4.9c-1.3,2.5-3.2,4.3-5.9,5.3c-1.9,0.7-3.8,1-5.8,1c-3.4,0-6.6,0.9-9.4,2.7c-5.8,3.6-8.8,9.1-10.5,15.4
				c-0.6,2.1-0.6,4.4-0.8,6.7c-0.3,3.3,0.1,6.5,1.4,9.5c1,2.2,2.3,3.9,4.5,5.1c2.9,1.7,5.3,4,5.9,7.6c0.5,2.7,0.4,5.3-1.5,7.4
				c-0.8,0.9-1.8,1.8-3.1,1.9c-1.2,0.2-2.4,0.3-3.5-0.2c-0.3-0.1-0.6-0.1-0.8-0.1c-0.1,1.5,0.3,2.6,1.6,4.1
				c2.7,3.2,8.1,3.3,10.9,0.2c1.5-1.7,2.2-3.8,2.4-6.1c0.3-2.8-0.4-5.2-1.9-7.5c-0.9-1.4-0.9-2,0.2-3.3c0.1-0.1,0.2-0.2,0.3-0.3
				c0.9-1.2,1.7-1.3,2.8-0.2c2,1.9,3.4,4,3.8,6.8C125.5,161.2,125.6,161.8,125.7,162.4z M102.8,116.5c0.1,0,0.3,0.1,0.4,0.1
				c0.5-0.6,0.9-1.2,1.4-1.7c3.1-4,6.9-7.1,11.9-8.5c2.6-0.8,5.3-0.7,7.9-0.9c4.1-0.3,6.3-2.6,6.2-6.6c0-2.1,0.6-3.8,2.1-5.2
				c2.4-2.3,5.3-2.8,8.5-2.4c1.6,0.2,3.2,0.5,4.8,0.4c2.6-0.2,5.1-1,6.6-3.3c0.8-1.1,1.2-2.4,1.7-3.7c0.3-0.7,0.4-1.5,0.4-2.2
				c0.1-1.2-0.5-2.1-1.2-3.1c-1.9-2.5-4.3-3.9-7.3-4.3c-0.9-0.1-1.2,0.3-1.2,1.1c0,1.2,0,2.4-0.1,3.6c0,0.7-0.1,1.4-0.4,2
				c-1,2.8-2.9,4.8-5.7,5.7c-1.5,0.5-3.2,0.7-4.8,1c-3.4,0.5-5.6,2.5-7,5.5c-0.7,1.4-1.6,2.8-2.7,3.9c-2.3,2.4-5.4,3.2-8.6,3.2
				c-6.2,0-11.9,4.9-13.1,10.5C102.6,113.2,102.6,114.9,102.8,116.5z M114.3,88.6c-0.1-0.1-0.2-0.1-0.3-0.2
				c-0.5,0.2-0.9,0.4-1.4,0.5c-3,1.3-5.7,3.2-8.2,5.2c-5.6,4.4-10,9.6-12.2,16.5c-1.1,3.4-0.6,6.6,0.5,9.7c0.6,1.7,1.1,3.3,0.6,5.2
				c-0.8,3.4,0.6,6.3,3.1,8.6c0.8,0.7,1.2,0.5,1.4-0.5c0.6-2.9,1.2-5.9,1.8-8.8c0.1-0.3,0-0.7-0.1-1c-0.4-1.1-0.8-2.3-1.3-3.4
				c-1.2-2.7-1.1-5.5-0.7-8.3c1.3-9.5,9.4-16.4,18.3-16.2c3.2,0,5.6-1.4,6.9-4.5c1-2.2,2.3-4.2,4.4-5.7c2.3-1.6,4.9-2.4,7.7-2.6
				c1.7-0.1,3.3-0.7,4.3-2.1c0.2-0.3,0.3-0.7,0.4-1c-0.3-0.1-0.7-0.3-1-0.3c-1.5,0-3,0.1-4.5,0.1c-4.1,0.1-7.6,1.7-10.8,4.2
				c-1.6,1.2-2.7,2.8-3.4,4.7c-1,2.6-3.1,3.6-5.8,2.9c-0.6-0.1-0.8-0.4-0.6-1C113.9,89.9,114.1,89.2,114.3,88.6z M111.6,134.2
				c0.1,3.5,1.3,6.2,4.2,8c0.3,0.2,0.8,0.2,1.2,0.2c0-0.4,0.1-0.8,0-1.1c-0.7-2.4-0.6-4.9-0.1-7.2c1.2-5.2,6.2-9.1,11.6-9.4
				c0.4,0,0.8,0,1.2-0.1c0.6-0.2,0.8-0.6,0.4-1.1c-1.3-1.4-2.8-2.4-4.7-2.6c-3-0.3-5.7,0.5-8.1,2.4C113.4,126.2,112,130,111.6,134.2
				z M174.8,218.8c0,0.1-0.1,0.2-0.1,0.3c0.3,0.2,0.6,0.5,0.9,0.6c1.9,1,3.8,2,5.7,3.1c4.7,2.7,8.8,6,12.4,10
				c0.4,0.4,1.1,0.7,1.6,0.8c1.6,0.1,3.2,0.1,4.8,0c0.4,0,0.7-0.2,1.1-0.3c-0.1-0.3-0.2-0.7-0.4-1c-1.6-2.4-3.5-4.4-5.8-6.1
				c-1.8-1.4-3.7-2.7-5.7-3.8c-3.9-2.1-8.2-3.3-12.6-3.6C176.1,218.7,175.4,218.8,174.8,218.8z M109.5,159.5c0,0,0.1,0,0.1,0
				c-0.2-0.5-0.3-1-0.5-1.5c-1.2-2.6-3.5-3.9-6.1-4.6c-3.6-1-7.2-1.9-10.1-4.5c-0.2-0.2-0.6-0.3-0.8-0.2c-0.2,0.1-0.3,0.5-0.3,0.8
				c0.4,1.4,0.8,2.9,1.5,4.2c1.5,2.7,4.1,4.1,7,4.8c2.2,0.6,4.3,1.2,6.2,2.5c0.6,0.4,1.5,1.1,2,0.9
				C109.7,161.6,109.4,160.5,109.5,159.5C109.5,159.6,109.5,159.6,109.5,159.5z M142.7,126.9c-0.2-1.1-0.3-2.2-0.5-3.2
				c-0.1-0.7-0.6-0.9-1.3-0.6c-1.4,0.5-2.8,1-4.2,1.3c-0.8,0.2-1,0.5-0.8,1.3c0.3,1,0.7,2.2,0.6,3.2c-0.2,1.7-0.5,3.5-1.6,5
				c-0.5,0.6-0.1,0.8,0.5,0.9c1.7,0.2,3.1-0.4,4.3-1.4C141.6,131.7,142.7,129.5,142.7,126.9z M169.4,222.6c-0.1,0.1-0.2,0.3-0.2,0.4
				c0.4,0.3,0.8,0.6,1.3,0.9c4,2.5,7.9,5.2,11.3,8.4c1.3,1.2,2.7,1.5,4.3,1.3c0.2,0,0.6-0.2,0.6-0.3c0.1-0.2-0.1-0.5-0.3-0.7
				c-0.8-0.7-1.5-1.6-2.4-2.1c-3.4-2-6.8-4-10.2-5.9C172.4,223.8,170.9,223.2,169.4,222.6z M88.8,132.1c-0.1,0-0.1,0-0.2,0.1
				c0,0.3,0,0.7,0.1,1c0.8,2.1,1.5,4.3,2.6,6.2c1.4,2.7,3.3,5,6.2,6.3c0.2,0.1,0.5,0.1,0.8,0.1c0-0.2,0.1-0.5,0.1-0.7
				c-0.2-1.1-0.4-2.3-0.7-3.4c-0.1-0.4-0.4-0.8-0.8-1c-1.2-0.8-2.5-1.5-3.7-2.3c-0.1-0.1-0.1-0.1-0.2-0.2c-0.9-1.2-1.7-2.5-2.6-3.7
				C89.9,133.6,89.3,132.8,88.8,132.1z M88.1,125.7c0.1,0,0.2,0,0.3,0c0.5-0.8,0.2-1.6,0-2.4c-0.1,0-0.2,0-0.3,0
				C88.1,124.1,88.1,124.9,88.1,125.7z"/>
		</g>
	</g>
</g>
</svg>
